PathFileType	4	(X/Y/Z)	18_coords_data.trc
DataRate	CameraRate	NumFrames	NumMarkers	Units	OrigDataRate	OrigDataStartFrame	OrigNumFrames
30.0	30.0	9	21	m	30.0	23	66
Frame#	Time	THUMB_TIP	THUMB_IP	THUMB_MCP	THUMB_CMC	INDEX_TIP	INDEX_DIP	INDEX_PIP	INDEX_MCP	MIDDLE_TIP	MIDDLE_DIP	MIDDLE_PIP	MIDDLE_MCP	RING_TIP	RING_DIP	RING_PIP	RING_MCP	PINKY_TIP	PINKY_DIP	PINKY_PIP	PINKY_MCP	WRIST
X1	Y1	Z1	X2	Y2	Z2	X3	Y3	Z3	X4	Y4	Z4	X5	Y5	Z5	X6	Y6	Z6	X7	Y7	Z7	X8	Y8	Z8	X9	Y9	Z9	X10	Y10	Z10	X11	Y11	Z11	X12	Y12	Z12	X13	Y13	Z13	X14	Y14	Z14	X15	Y15	Z15	X16	Y16	Z16	X17	Y17	Z17	X18	Y18	Z18	X19	Y19	Z19	X20	Y20	Z20	X21	Y21	Z21
22	0.7333333333333333	0.025719200134277344	-0.04293420028686523	0.9392119750976563	0.01900629997253418	-0.02428260040283203	0.956906982421875	0.003243380069732666	-0.012118399620056152	0.97897802734375	-0.004892580032348633	0.016147600173950196	0.9972210083007812	0.042040199279785154	0.015648300170898438	0.8699459838867187	0.026467599868774415	0.014518199920654297	0.8854290161132813	0.012619099617004394	0.01366670036315918	0.9037459716796875	0.001420179963111877	0.013869199752807617	0.938469970703125	0.047745800018310545	0.05775429916381836	0.8622039794921875	0.033067100524902346	0.052598400115966795	0.880260986328125	0.01661720085144043	0.046155300140380856	0.9020139770507812	0.000311682999134063	0.03751089859008789	0.9371840209960938	0.05751139831542969	0.07340630340576172	0.8856640014648437	0.040673198699951174	0.07035299682617188	0.9003189697265624	0.022517299652099608	0.06595770263671875	0.917823974609375	0.004763889789581299	0.05632199859619141	0.9455650024414063	0.05970970153808594	0.09699790191650391	0.9325360107421875	0.044153701782226565	0.09011219787597656	0.9405159912109375	0.02982830047607422	0.08311070251464844	0.9476589965820312	0.01068649959564209	0.07044950103759766	0.959969970703125	-0.02792989921569824	0.04021860122680664	1.0111900024414062
23	0.7666666666666667	0.025990900039672853	-0.04302339935302734	0.9387730102539062	0.0190802001953125	-0.024479499816894533	0.9565170288085938	0.003200089931488037	-0.012415300369262696	0.9785689697265625	-0.004967979907989502	0.015790300369262697	0.9967169799804687	0.04185219955444336	0.015760600090026857	0.8696619873046875	0.02632699966430664	0.01455720043182373	0.884989013671875	0.012386500358581543	0.013636899948120116	0.9031279907226563	0.001111770033836364	0.013600199699401856	0.9380599975585937	0.047359500885009766	0.057832199096679686	0.8617760009765625	0.032656299591064454	0.052608699798583985	0.879822998046875	0.016222200393676757	0.046062999725341794	0.9015780029296875	-4.2991001158952006e-05	0.03730509948730469	0.9367830200195313	0.05693439865112305	0.07359120178222656	0.8852069702148437	0.040118301391601566	0.07039330291748047	0.89989697265625	0.02200309944152832	0.06589080047607422	0.9173790283203125	0.004419929981231689	0.05609360122680664	0.9451019897460937	0.05921469879150391	0.09700669860839843	0.9321510009765624	0.04362160110473633	0.090060302734375	0.9402150268554688	0.02925090026855469	0.08297059631347656	0.9473330078125	0.010227199554443359	0.07023179626464844	0.9595380249023437	-0.02820330047607422	0.03981850051879883	1.0108200073242188
24	0.8	0.025315900802612305	-0.04365660095214844	0.9382559814453125	0.018471900939941405	-0.025130800247192383	0.9559559936523437	0.002587019920349121	-0.01301580047607422	0.9780609741210937	-0.00552262020111084	0.015227499961853028	0.9961849975585938	0.04147150039672851	0.015009200096130371	0.8691890258789062	0.025786899566650392	0.013836099624633788	0.88452001953125	0.011816800117492676	0.012958100318908691	0.9027119750976562	0.00048812800645828204	0.01301099967956543	0.9375659790039063	0.046887100219726564	0.05710309982299805	0.8612919921875	0.03211709976196289	0.05178609848022461	0.8793419799804687	0.01573260021209717	0.0453843994140625	0.9010830078125	-0.0006202030181884761	0.03670439910888672	0.93639501953125	0.056589099884033205	0.07272750091552735	0.8846749877929687	0.03988830184936523	0.06942649841308594	0.8993770141601563	0.021664100646972655	0.06513459777832031	0.916822021484375	0.003931550025939941	0.05544010162353516	0.944510009765625	0.05880339813232422	0.09608350372314453	0.931458984375	0.04330059814453125	0.08923549652099609	0.9394819946289062	0.028815299987792968	0.0822334976196289	0.9466820068359375	0.00980873966217041	0.06951139831542968	0.9589400024414062	-0.028567699432373046	0.03933089828491211	1.010219970703125
25	0.8333333333333334	0.024438499450683594	-0.04446630096435547	0.9376810302734375	0.017736000061035158	-0.02588209915161133	0.9553369750976562	0.001998340010643005	-0.013683899879455567	0.9774630126953125	-0.006051760196685791	0.014562199592590332	0.9956749877929687	0.04081740188598633	0.014074000358581543	0.8687559814453125	0.02516670036315918	0.012933199882507324	0.883906005859375	0.011156499862670899	0.012053799629211426	0.9020399780273437	-7.988409698009401e-05	0.012200499534606933	0.9370189819335938	0.046063499450683595	0.05605910110473633	0.8606010131835937	0.03133860015869141	0.050918399810791014	0.878708984375	0.014897000312805176	0.044475799560546876	0.900416015625	-0.001358639955520629	0.03585770034790039	0.9357830200195313	0.055653099060058595	0.07167449951171875	0.88372900390625	0.03895029830932617	0.06850389862060546	0.8985250244140625	0.020743099212646485	0.06425099945068359	0.91602197265625	0.0031291999816894533	0.054692699432373044	0.9437999877929687	0.057959400177001956	0.09518260192871093	0.9301900024414063	0.042412498474121096	0.0884761962890625	0.938322998046875	0.027988000869750975	0.08150969696044921	0.945697998046875	0.009124010086059571	0.06884950256347656	0.9581849975585938	-0.029169200897216797	0.038759300231933594	1.0095999755859375
26	0.8666666666666667	0.023460800170898438	-0.0452150993347168	0.9370859985351563	0.016896799087524415	-0.0265757999420166	0.95475	0.001329519987106323	-0.014353699684143066	0.97693701171875	-0.006668220043182373	0.013933899879455567	0.9951370239257813	0.040209400177001954	0.013121600151062012	0.8682069702148437	0.024503900527954103	0.012025799751281738	0.883427001953125	0.010631500244140625	0.011175800323486328	0.9014719848632813	-0.000758947014808654	0.011404500007629395	0.936469970703125	0.04522420120239258	0.05503179931640625	0.8599420166015626	0.03051919937133789	0.04993330001831055	0.8781209716796875	0.014193900108337402	0.043612499237060544	0.8997230224609375	-0.0019521199464797969	0.0351349983215332	0.93502099609375	0.05472439956665039	0.07064640045166015	0.8828779907226563	0.0381234016418457	0.06759300231933593	0.89764599609375	0.019977899551391603	0.06345790100097656	0.9152319946289063	0.002488810062408447	0.05398249816894531	0.943208984375	0.05705319976806641	0.094466796875	0.9293330078125	0.04164929962158203	0.08784149932861328	0.9374089965820313	0.0271968994140625	0.08084559631347656	0.9448610229492187	0.008401080131530762	0.06825240325927734	0.9575079956054687	-0.029811399459838867	0.03818209838867188	1.0090900268554688
27	0.9	0.02251810073852539	-0.0460791015625	0.93660302734375	0.01605769920349121	-0.02742519950866699	0.9541630249023437	0.000651888012886047	-0.015074000358581544	0.9763829956054687	-0.007319789886474609	0.013308500289916992	0.9946110229492188	0.03937590026855469	0.012173500061035156	0.8675289916992187	0.02373509979248047	0.011106499671936035	0.882864990234375	0.009960989952087402	0.010352499961853027	0.9009439697265625	-0.0013560700416564942	0.010670100212097168	0.9359039916992188	0.04428329849243164	0.05423210144042969	0.8590230102539063	0.029640300750732422	0.04917959976196289	0.8774199829101562	0.013505399703979492	0.04284719848632813	0.8990180053710938	-0.0024885799884796144	0.03439120101928711	0.9344110107421875	0.05416049957275391	0.06989959716796874	0.8822210083007812	0.03750189971923828	0.06685320281982422	0.8970640258789062	0.019402099609375	0.0627411003112793	0.9145989990234376	0.001810670018196106	0.05322669982910156	0.9426740112304688	0.0565255012512207	0.093864501953125	0.9287769775390625	0.041053001403808596	0.087118896484375	0.9369110107421875	0.026737199783325196	0.0802345962524414	0.9443309936523437	0.007726550102233887	0.06757430267333984	0.9569010009765625	-0.030252399444580077	0.037513198852539065	1.0084000244140625
28	0.9333333333333333	0.022208099365234376	-0.04665599822998047	0.93627001953125	0.015760000228881837	-0.02795560073852539	0.9537449951171875	0.00032857599854469306	-0.01552120018005371	0.9759879760742187	-0.007658130168914795	0.012819899559020995	0.99418701171875	0.0387422981262207	0.01158329963684082	0.8669840087890625	0.023134199142456055	0.010493399620056153	0.8823510131835938	0.009417920112609864	0.009717729568481446	0.9004400024414062	-0.001920120000839233	0.010160200119018555	0.9354929809570313	0.043375198364257815	0.05367649841308594	0.857968994140625	0.028707000732421876	0.048577800750732425	0.8766829833984375	0.012657699584960937	0.04220899963378906	0.8983729858398437	-0.003104579925537109	0.033862998962402344	0.9338679809570313	0.05301139831542969	0.06956909942626953	0.881281005859375	0.03645660018920899	0.06650730133056641	0.8962050170898438	0.018452899932861328	0.06224129867553711	0.91377099609375	0.001195119976997375	0.052728801727294924	0.9419520263671874	0.05563290023803711	0.0937864990234375	0.9283350219726563	0.04024480056762696	0.08689579772949219	0.936322021484375	0.026043399810791016	0.07992240142822266	0.9436489868164063	0.007068120002746582	0.06710500335693359	0.956041015625	-0.03056060028076172	0.037097900390625	1.0078800048828125
29	0.9666666666666667	0.02160770034790039	-0.0472666015625	0.9360250244140625	0.015215800285339356	-0.028511800765991212	0.9534860229492188	-0.000198826000094413	-0.016040300369262694	0.9756619873046875	-0.0081885404586792	0.012453200340270996	0.9938460083007813	0.03858150100708008	0.01120989990234375	0.8666190185546875	0.022979000091552734	0.010112000465393066	0.8819439697265625	0.009103110313415527	0.00933880043029785	0.8999299926757812	-0.002176100015640259	0.009868720054626464	0.93497998046875	0.042674701690673826	0.053423301696777344	0.85756298828125	0.02815329933166504	0.04824679946899414	0.876072021484375	0.012215100288391113	0.04188240051269531	0.8979530029296875	-0.003299860000610351	0.03357479858398438	0.9334509887695313	0.05248020172119141	0.06934020233154296	0.880666015625	0.036036201477050785	0.06615910339355469	0.8958079833984375	0.018101699829101564	0.0619286994934082	0.9134619750976563	0.001017009973526001	0.05236980056762695	0.9416669921875	0.05546620178222656	0.09356199645996094	0.9281090087890626	0.04010929870605469	0.08661949920654297	0.9361900024414063	0.025914600372314453	0.07956379699707031	0.9435850219726563	0.006894390106201172	0.06675910186767578	0.9559149780273437	-0.031069299697875977	0.036738201141357424	1.0077000122070312
30	1.0	0.02074769973754883	-0.048337600708007813	0.936114990234375	0.014609100341796875	-0.029398199081420898	0.9534400024414063	-0.0005665460228919981	-0.016626300811767577	0.9754520263671875	-0.008390339851379394	0.012022199630737305	0.993656005859375	0.038501598358154296	0.010761599540710449	0.8664739990234375	0.02286899948120117	0.009675629615783691	0.8817410278320312	0.009015640258789063	0.008906499862670898	0.8996890258789062	-0.00226134991645813	0.009494460105895997	0.9348109741210937	0.041731201171875	0.053231201171875	0.8571329956054687	0.02752669906616211	0.04789780044555664	0.8754879760742188	0.0118439998626709	0.04152690124511719	0.8975369873046875	-0.003485320091247558	0.03314860153198242	0.9331939697265625	0.052021999359130856	0.06908889770507813	0.8802360229492188	0.035597999572753905	0.06590599822998047	0.8953660278320312	0.017827800750732422	0.061604999542236326	0.9130859985351563	0.0008945019841194151	0.05199300003051758	0.9413579711914063	0.055143798828125	0.09345179748535157	0.9278060302734376	0.0397947998046875	0.0864738998413086	0.9358809814453125	0.02572170066833496	0.07936609649658204	0.9432849731445313	0.006737430095672608	0.06639739990234375	0.9557109985351563	-0.031179000854492187	0.036439098358154294	1.007510009765625
